<svg xmlns="http://www.w3.org/2000/svg" viewBox="0 0 512 512" width="512" height="512">
  <defs>
    <linearGradient id="bg" x1="0%" y1="0%" x2="100%" y2="100%">
      <stop offset="0%" stop-color="#4f46e5" />
      <stop offset="100%" stop-color="#7c3aed" />
    </linearGradient>
    <linearGradient id="accent" x1="0%" y1="0%" x2="100%" y2="100%">
      <stop offset="0%" stop-color="#fbbf24" />
      <stop offset="100%" stop-color="#f59e0b" />
    </linearGradient>
  </defs>
  <!-- Background Rounded Rect -->
  <rect width="512" height="512" rx="112" fill="url(#bg)" />
  <!-- Cap / Graduation & Book motif -->
  <path d="M256 120 L408 200 L256 280 L104 200 Z" fill="#ffffff" />
  <path d="M408 200 L408 270 C408 270 380 320 256 320 C132 320 104 270 104 270 L104 200 L256 280 Z" fill="#e0e7ff" opacity="0.9" />
  <!-- Tassel -->
  <circle cx="388" cy="285" r="14" fill="url(#accent)" />
  <path d="M388 285 L392 355 L384 355 Z" fill="url(#accent)" />
  <!-- Bell / Notification Sparkle -->
  <circle cx="390" cy="130" r="38" fill="url(#accent)" />
  <path d="M390 114 L393 126 L405 130 L393 134 L390 146 L387 134 L375 130 L387 126 Z" fill="#ffffff" />
</svg>
